# AST/ASF file generated using VICON BodyLanguage
# -----------------------------------------------
:version 1.10
:name VICON
:units
  mass 1.0
  length 0.45
  angle deg
:documentation
   .ast/.asf automatically generated from VICON data using
   VICON BodyBuilder and BodyLanguage model FoxedUp or BRILLIANT.MOD
:root
   order TX TY TZ RX RY RZ
   axis XYZ
   position 0 0 0  
   orientation 0 0 0 
:bonedata
  begin
     id 1 
     name lhipjoint
     direction 0.621036 -0.695554 0.361275 
     length 2.46325 
     axis 0 0 0  XYZ
  end
  begin
     id 2 
     name lfemur
     direction 0.34202 -0.939693 0  
     length 6.54784  
     axis 0 0 20  XYZ
    dof rx ry rz
    limits (-160.0 20.0)
           (-70.0 70.0)
           (-60.0 70.0)
  end
  begin
     id 3 
     name ltibia
     direction 0.34202 -0.939693 0   
     length 7.84737   
     axis 0 0 20   XYZ
    dof rx
    limits (-10.0 170.0)
  end
  begin
     id 4 
     name lfoot
     direction 0.0790693 -0.217241 0.97291   
     length 2.59747   
     axis -90 7.62852e-016 20   XYZ
    dof rx rz
    limits (-45.0 90.0)
           (-70.0 20.0)
  end
  begin
     id 5 
     name ltoes
     direction 1.53572e-011 -4.21898e-011 1   
     length 1.29919   
     axis -90 7.62852e-016 20   XYZ
    dof rx
    limits (-90.0 20.0)
  end
  begin
     id 6 
     name rhipjoint
     direction -0.602353 -0.708375 0.367935   
     length 2.41867  
     axis 0 0 0  XYZ 
  end
  begin
     id 7 
     name rfemur
     direction -0.34202 -0.939693 0   
     length 6.92065   
     axis 0 0 -20   XYZ
    dof rx ry rz
    limits (-160.0 20.0)
           (-70.0 70.0)
           (-70.0 60.0)
  end
  begin
     id 8 
     name rtibia
     direction -0.34202 -0.939693 0   
     length 7.88883   
     axis 0 0 -20   XYZ
    dof rx
    limits (-10.0 170.0)
 end
 begin
     id 9 
     name rfoot
     direction -0.0768692 -0.211196 0.974416   
     length 2.43714  
     axis -90 -7.62852e-016 -20   XYZ
    dof rx rz
    limits (-45.0 90.0)
           (-20.0 70.0)
  end
  begin
     id 10 
     name rtoes
     direction -1.53575e-011 -4.21933e-011 1   
     length 1.22113   
     axis -90 -7.62852e-016 -20   XYZ
    dof rx
    limits (-90.0 20.0)
  end
  begin
     id 11 
     name lowerback
     direction 0.0197937 0.98943 -0.143655   
     length 2.16931   
     axis 0 0 0   XYZ
    dof rx ry rz
    limits (-20.0 45.0)
           (-30.0 30.0)
           (-30.0 30.0)
  end
  begin
     id 12 
     name upperback
     direction -0.00183968 0.999975 0.00684288   
     length 2.17221   
     axis 0 0 0   XYZ
    dof rx ry rz
    limits (-20.0 45.0)
           (-30.0 30.0)
           (-30.0 30.0)
  end
  begin
     id 13 
     name thorax
     direction -0.00950244 0.997208 0.0740685   
     length 2.22549   
     axis 0 0 0   XYZ
    dof rx ry rz
    limits (-20.0 45.0)
           (-30.0 30.0)
           (-30.0 30.0)
  end
  begin
     id 14 
     name lowerneck
     direction 0.0218238 0.996215 0.0841425   
     length 1.77269   
     axis 0 0 0   XYZ
    dof rx ry rz
    limits (-20.0 45.0)
           (-30.0 30.0)
           (-30.0 30.0)
  end
  begin
     id 15 
     name upperneck
     direction -0.00430652 0.994214 -0.107332   
     length 1.76534   
     axis 0 0 0   XYZ
    dof rx ry rz
    limits (-20.0 45.0)
           (-30.0 30.0)
           (-30.0 30.0)
  end
  begin
     id 16
     name head
     direction -0.00328946 0.998959 -0.0454998  
     length 1.82634  
     axis 0 0 0   XYZ
    dof rx ry rz
    limits (-20.0 45.0)
           (-30.0 30.0)
           (-30.0 30.0)
  end
  begin
     id 17 
     name lclavicle
     direction 0.970962 0.239191 0.00450212  
     length 3.84872  
     axis 0 0 0   XYZ
    dof ry rz
    limits (-20.0 10.0)
           (0.0 20.0)
  end
  begin
     id 18 
     name lhumerus
     direction 1 -4.48966e-011 5.74696e-028   
     length 5.22771   
     axis 180 -30 -90   XYZ
    dof rx ry rz
    limits (-60.0 90.0)
           (-90.0 90.0)
           (-90.0 90.0)
  end
  begin
     id 19
     name lradius
     direction 1 -4.4896e-011 4.25109e-027   
     length 3.45251   
     axis 180 -30 -90   XYZ
    dof rx
    limits (-10.0 170.0)
  end
  begin
     id 20
     name lwrist
     direction 1 -4.48971e-011 1.15382e-027   
     length 1.72626   
     axis -5.52449e-016 90 90   XYZ
    dof ry
    limits (-180.0 0.0)
 end
  begin
     id 21 
     name lhand
     direction 1 -4.49034e-011 2.30765e-027   
     length 0.552119   
     axis -1.47248e-015 90 90   XYZ
    dof rx rz
    limits (-90.0 90.0)
           (-45.0 45.0)
  end
  begin
     id 22 
     name lfingers
     direction 1 -4.48951e-011 4.61529e-027   
     length 0.445133   
     axis -2.94495e-015 90 90   XYZ
    dof rx
    limits (0.0 90.0)
  end
  begin
     id 23
     name lthumb
     direction 0.707107 -6.34991e-011 0.707107   
     length 0.639124   
     axis -90 45 2.85299e-015   XYZ
    dof rx rz
    limits (-45.0 45.0)
           (-45.0 45.0)
  end
  begin
     id 24 
     name rclavicle
     direction -0.97424 0.222511 -0.0366699   
     length 3.73439  
     axis 0 0 0   XYZ 
    dof ry rz
    limits (-10.0 20.0)
           (-20.0 0.0)
  end
  begin
     id 25 
     name rhumerus
     direction -1 -4.48956e-011 -4.97258e-028  
     length 5.2398   
     axis 180 30 90   XYZ
    dof rx ry rz
    limits (-90.0 60.0)
           (-90.0 90.0)
           (-90.0 90.0)
  end
  begin
     id 26 
     name rradius
     direction -1 -4.4897e-011 -1.72611e-027   
     length 3.48042   
     axis 180 30 90   XYZ
    dof rx
    limits (-10.0 170.0)
  end
  begin
     id 27 
     name rwrist
     direction -1 -4.48976e-011 1.15382e-027   
     length 1.74021   
     axis -5.52449e-016 -90 -90   XYZ
    dof ry
    limits (-180.0 0.0)
  end
  begin
     id 28
     name rhand
     direction -1 -4.48963e-011 2.30765e-027   
     length 0.618713   
     axis -1.47248e-015 -90 -90   XYZ
    dof rx rz
    limits (-90.0 90.0)
           (-45.0 45.0)
  end
  begin
     id 29
     name rfingers
     direction -1 -4.4888e-011 4.61529e-027   
     length 0.498823   
     axis -2.94495e-015 -90 -90   XYZ
    dof rx
    limits (0.0 90.0)
  end
  begin
     id 30
     name rthumb
     direction -0.707107 -6.34968e-011 0.707107   
     length 0.716213   
     axis -90 -45 -2.85299e-015   XYZ
    dof rx rz
    limits (-45.0 45.0)
           (-45.0 45.0)
  end
:hierarchy
  begin
    root lhipjoint rhipjoint lowerback
    lhipjoint lfemur
    lfemur ltibia
    ltibia lfoot
    lfoot ltoes
    rhipjoint rfemur
    rfemur rtibia
    rtibia rfoot
    rfoot rtoes
    lowerback upperback
    upperback thorax
    thorax lowerneck lclavicle rclavicle
    lowerneck upperneck
    upperneck head
    lclavicle lhumerus
    lhumerus lradius
    lradius lwrist
    lwrist lhand lthumb
    lhand lfingers
    rclavicle rhumerus
    rhumerus rradius
    rradius rwrist
    rwrist rhand rthumb
    rhand rfingers
  end

#!OML:ASF G:\JayActor3\Patient Classification 1\Patient 1\Session 5\male.ASF
:FULLY-SPECIFIED
:DEGREES
334
root -27.618 18.1842 -6.41946 -197.472 -83.9793 217.163
lowerback 21.9274 -0.921182 2.24318
upperback 6.51022 -1.23554 -0.721193
thorax -5.18528 -0.796091 -1.72003
lowerneck 6.34528 1.99765 3.60463
upperneck -24.2595 2.81693 0.198886
head -8.52983 0.69999 -0.758153
rclavicle 1.47101e-014 7.95139e-015
rhumerus -30.7818 -2.89848 -89.3618
rradius 34.8965
rwrist -1.32876
rhand -19.8665 -9.03459
rfingers 7.12502
rthumb 6.46868 -38.9158
lclavicle 1.47101e-014 7.95139e-015
lhumerus -30.0589 5.69017 79.5641
lradius 26.6079
lwrist 15.6286
lhand -21.8009 9.64737
lfingers 7.12502
lthumb 4.60099 39.5774
rfemur -44.1957 4.15336 20.8299
rtibia 58.032
rfoot 5.18532 -1.014
rtoes -6.39735
lfemur -37.2703 16.4953 -24.2681
ltibia 24.8375
lfoot 12.9466 -1.62458
ltoes -22.7677
335
root -27.5367 18.1818 -6.42741 -198.144 -83.9265 217.74
lowerback 21.8448 -0.921475 2.35628
upperback 6.51366 -1.21348 -0.72663
thorax -5.13981 -0.784785 -1.79728
lowerneck 6.31148 1.9947 3.63934
upperneck -24.2455 2.81194 0.184527
head -8.51816 0.696252 -0.767885
rclavicle -3.18055e-015 3.10104e-014
rhumerus -30.884 -2.8698 -89.3012
rradius 34.9134
rwrist -1.38918
rhand -19.8659 -9.0279
rfingers 7.12502
rthumb 6.4693 -38.9091
lclavicle -3.18055e-015 3.10104e-014
lhumerus -30.2673 5.73552 79.5422
lradius 26.5768
lwrist 15.5888
lhand -21.7296 9.61637
lfingers 7.12502
lthumb 4.66989 39.5449
rfemur -43.3513 4.34054 20.8683
rtibia 58.6714
rfoot 5.69875 -1.27351
rtoes -6.84475
lfemur -37.2496 16.4935 -24.127
ltibia 24.468
lfoot 13.1931 -1.72247
ltoes -22.6211
336
root -27.4553 18.1773 -6.43588 -198.674 -83.8768 218.166
lowerback 21.7659 -0.913302 2.46757
upperback 6.51568 -1.18121 -0.735678
thorax -5.09718 -0.768489 -1.8799
lowerneck 6.25769 1.98494 3.67716
upperneck -24.2112 2.7966 0.169527
head -8.49602 0.688161 -0.777096
rclavicle 2.78299e-014 3.97569e-014
rhumerus -30.9807 -2.87195 -89.2251
rradius 34.8976
rwrist -1.43841
rhand -19.8819 -9.00898
rfingers 7.12502
rthumb 6.4538 -38.8907
lclavicle 2.78299e-014 3.97569e-014
lhumerus -30.4793 5.79599 79.5273
lradius 26.5431
lwrist 15.5425
lhand -21.6704 9.5807
lfingers 7.12502
lthumb 4.72701 39.508
rfemur -42.4803 4.53173 20.886
rtibia 59.184
rfoot 6.06097 -1.56803
rtoes -7.4256
lfemur -37.2058 16.4406 -23.9762
ltibia 24.0985
lfoot 13.4121 -1.81675
ltoes -22.5691
337
root -27.3739 18.1712 -6.44472 -199.114 -83.8311 218.489
lowerback 21.6908 -0.902514 2.57923
upperback 6.51748 -1.14592 -0.748769
thorax -5.05641 -0.750693 -1.96772
lowerneck 6.1926 1.97348 3.72254
upperneck -24.1594 2.77926 0.153176
head -8.46578 0.679295 -0.787649
rclavicle -4.37326e-015 -2.70347e-014
rhumerus -31.0726 -2.90792 -89.1391
rradius 34.853
rwrist -1.44331
rhand -19.904 -8.99902
rfingers 7.12502
rthumb 6.43253 -38.8813
lclavicle -4.37326e-015 -2.70347e-014
lhumerus -30.6989 5.87662 79.5126
lradius 26.5029
lwrist 15.5052
lhand -21.6458 9.53521
lfingers 7.12502
lthumb 4.75074 39.4619
rfemur -41.5709 4.73003 20.886
rtibia 59.544
rfoot 6.26926 -1.84066
rtoes -7.98659
lfemur -37.1407 16.342 -23.8139
ltibia 23.7388
lfoot 13.6003 -1.90761
ltoes -22.6047
338
root -27.2918 18.1633 -6.4541 -199.637 -83.7819 218.883
lowerback 21.6283 -0.889646 2.7086
upperback 6.51674 -1.10386 -0.75853
thorax -5.02445 -0.729735 -2.06356
lowerneck 6.1145 1.95955 3.77321
upperneck -24.0908 2.75775 0.132877
head -8.42735 0.669064 -0.799824
rclavicle -1.27222e-014 -5.24792e-014
rhumerus -31.1582 -2.96897 -89.0421
rradius 34.7772
rwrist -1.40965
rhand -19.9324 -9.00664
rfingers 7.12502
rthumb 6.40512 -38.8898
lclavicle -1.27222e-014 -5.24792e-014
lhumerus -30.9242 5.97277 79.5029
lradius 26.4528
lwrist 15.4843
lhand -21.6563 9.49008
lfingers 7.12502
lthumb 4.74062 39.417
rfemur -40.6246 4.94546 20.8925
rtibia 59.7251
rfoot 6.3583 -2.05216
rtoes -8.48251
lfemur -37.0634 16.192 -23.613
ltibia 23.3992
lfoot 13.7637 -1.97758
ltoes -22.695
339
root -27.2088 18.1539 -6.4641 -200.253 -83.7282 219.365
lowerback 21.5787 -0.876744 2.85492
upperback 6.51147 -1.05758 -0.764257
thorax -5.0036 -0.706854 -2.16558
lowerneck 6.03431 1.94646 3.82065
upperneck -24.0151 2.73762 0.115401
head -8.3863 0.659835 -0.810586
rclavicle 7.95139e-016 2.5842e-014
rhumerus -31.2383 -3.0425 -88.94
rradius 34.67
rwrist -1.33644
rhand -19.9704 -9.02403
rfingers 7.12502
rthumb 6.36835 -38.9083
lclavicle 7.95139e-016 2.5842e-014
lhumerus -31.1573 6.07914 79.497
lradius 26.3935
lwrist 15.4864
lhand -21.7023 9.45118
lfingers 7.12502
lthumb 4.69627 39.3791
rfemur -39.648 5.18516 20.9084
rtibia 59.7035
rfoot 6.36852 -2.18583
rtoes -8.84936
lfemur -36.9871 15.9975 -23.3762
ltibia 23.0868
lfoot 13.9103 -1.98832
ltoes -22.7319
340
root -27.1249 18.1428 -6.47504 -200.938 -83.6642 219.909
lowerback 21.5388 -0.863129 3.00709
upperback 6.50386 -1.00842 -0.761024
thorax -4.98966 -0.682729 -2.26186
lowerneck 5.96607 1.93682 3.86026
upperneck -23.949 2.72125 0.0948218
head -8.35069 0.653122 -0.8216
rclavicle 7.15625e-015 -1.11319e-014
rhumerus -31.3101 -3.11926 -88.8296
rradius 34.5363
rwrist -1.21961
rhand -20.0063 -9.0494
rfingers 7.12502
rthumb 6.33372 -38.9347
lclavicle 7.15625e-015 -1.11319e-014
lhumerus -31.4001 6.20183 79.5002
lradius 26.3228
lwrist 15.5008
lhand -21.7713 9.42615
lfingers 7.12502
lthumb 4.62964 39.3556
rfemur -38.6419 5.45882 20.9386
rtibia 59.4605
rfoot 6.37442 -2.26446
rtoes -9.06095
lfemur -36.9153 15.7759 -23.1067
ltibia 22.806
lfoot 14.0268 -1.98098
ltoes -22.8345
341
root -27.0397 18.1306 -6.48694 -201.574 -83.5925 220.396
lowerback 21.5156 -0.846632 3.15284
upperback 6.49405 -0.956245 -0.752278
thorax -4.98601 -0.657395 -2.3491
lowerneck 5.904 1.93269 3.88503
upperneck -23.8892 2.71129 0.0759492
head -8.31849 0.650417 -0.830205
rclavicle 1.47101e-014 -5.1684e-015
rhumerus -31.3753 -3.19049 -88.7144
rradius 34.385
rwrist -1.07711
rhand -20.0491 -9.06861
rfingers 7.12502
rthumb 6.29242 -38.9552
lclavicle 1.47101e-014 -5.1684e-015
lhumerus -31.6518 6.33278 79.5145
lradius 26.2461
lwrist 15.5227
lhand -21.8469 9.41449
lfingers 7.12502
lthumb 4.5566 39.3455
rfemur -37.6129 5.7678 20.9726
rtibia 58.9868
rfoot 6.4385 -2.31232
rtoes -9.23308
lfemur -36.8494 15.541 -22.826
ltibia 22.5504
lfoot 14.1385 -1.8886
ltoes -22.8076
342
root -26.9533 18.1177 -6.49946 -202.141 -83.5152 220.802
lowerback 21.5161 -0.82832 3.29584
upperback 6.48488 -0.901877 -0.74031
thorax -4.99335 -0.631399 -2.43165
lowerneck 5.85571 1.93013 3.89534
upperneck -23.848 2.70242 0.0586281
head -8.29531 0.648662 -0.836203
rclavicle 3.18055e-015 1.19271e-015
rhumerus -31.4291 -3.25547 -88.5954
rradius 34.2158
rwrist -0.917783
rhand -20.0881 -9.08164
rfingers 7.12502
rthumb 6.25472 -38.9693
lclavicle 3.18055e-015 1.19271e-015
lhumerus -31.9065 6.46923 79.5409
lradius 26.1588
lwrist 15.5374
lhand -21.9064 9.40156
lfingers 7.12502
lthumb 4.49912 39.3338
rfemur -36.5576 6.10431 21.0113
rtibia 58.2806
rfoot 6.60274 -2.39926
rtoes -9.35796
lfemur -36.7805 15.3063 -22.5449
ltibia 22.3076
lfoot 14.2368 -1.68226
ltoes -22.5679
343
root -26.8661 18.1045 -6.51295 -202.536 -83.434 221.026
lowerback 21.529 -0.805177 3.41993
upperback 6.48409 -0.845821 -0.727867
thorax -4.99743 -0.604819 -2.50326
lowerneck 5.79324 1.93617 3.887
upperneck -23.808 2.70302 0.0464397
head -8.27006 0.652346 -0.837966
rclavicle 2.78299e-015 -1.66979e-014
rhumerus -31.4601 -3.3193 -88.4748
rradius 34.0384
rwrist -0.7427
rhand -20.1227 -9.08461
rfingers 7.12502
rthumb 6.2214 -38.9732
lclavicle 2.78299e-015 -1.66979e-014
lhumerus -32.1531 6.60749 79.5812
lradius 26.0627
lwrist 15.5311
lhand -21.9395 9.39249
lfingers 7.12502
lthumb 4.46723 39.3254
rfemur -35.4814 6.47018 21.0471
rtibia 57.3508
rfoot 6.88422 -2.6017
rtoes -9.35575
lfemur -36.7045 15.0832 -22.2813
ltibia 22.0626
lfoot 14.3173 -1.37569
ltoes -22.1369
